# xmcd CD database file
#
# Track frame offsets:
#	180
#	16102
#	47435
#	76715
#	80692
#	102562
#	125452
#	152165
#	156445
#	176582
#	192690
#	234290
#	237395
#
# Disc length: 3363 seconds
#
# Revision: 0
# Processed by: cddbd v1.5.2PL0 Copyright (c) Steve Scherf et al.
# Submitted via: CDex 1.70beta2
#
DISCID=9e0d210d
DTITLE=Hubert Dupont - Altissimo
DYEAR=1995
DGENRE=Jazz
TTITLE0=Scot
TTITLE1=E
TTITLE2=La Maison De L'orti
TTITLE3=Saison Seche
TTITLE4=L'eclat Du Neuf
TTITLE5=3
TTITLE6=Sigiu
TTITLE7=Saison Seche II
TTITLE8=Calouche
TTITLE9=Serafic
TTITLE10=Telluric
TTITLE11=Saison Seche III
TTITLE12=Altissimo
EXTD=YEAR: 1995
EXTT0=
EXTT1=
EXTT2=
EXTT3=
EXTT4=
EXTT5=
EXTT6=
EXTT7=
EXTT8=
EXTT9=
EXTT10=
EXTT11=
EXTT12=
PLAYORDER=
